<svg xmlns="http://www.w3.org/2000/svg" viewBox="0 0 256 256" role="img" aria-label="use-signalr"><title>use-signalr</title><circle cx="128" cy="128" r="120" fill="#F5A524"/><path d="M89.94 114.85 A40.50 40.50 0 0 1 159.02 74.97 A10.50 10.50 0 0 1 142.94 88.47 A19.50 19.50 0 0 0 109.68 107.67 A10.50 10.50 0 0 1 89.94 114.85 Z M166.06 141.15 A40.50 40.50 0 0 1 96.98 181.03 A10.50 10.50 0 0 1 113.06 167.53 A19.50 19.50 0 0 0 146.32 148.33 A10.50 10.50 0 0 1 166.06 141.15 Z" fill="#1A1203"/><path d="M114.50 128.00 A13.50 13.50 0 1 1 141.50 128.00 A13.50 13.50 0 1 1 114.50 128.00 Z" fill="#FFFFFF"/></svg>
